<svg width="13" height="13" viewBox="0 0 13 13" fill="none" xmlns="http://www.w3.org/2000/svg">
<path fill-rule="evenodd" clip-rule="evenodd" d="M2.16797 2.70833C1.87129 2.70833 1.6263 2.95332 1.6263 3.25V9.75C1.6263 10.0467 1.87129 10.2917 2.16797 10.2917H10.8346C11.1313 10.2917 11.3763 10.0467 11.3763 9.75V3.25C11.3763 2.95332 11.1313 2.70833 10.8346 2.70833H2.16797ZM0.542969 3.25C0.542969 2.35501 1.27298 1.625 2.16797 1.625H10.8346C11.7296 1.625 12.4596 2.35501 12.4596 3.25V9.75C12.4596 10.645 11.7296 11.375 10.8346 11.375H2.16797C1.27298 11.375 0.542969 10.645 0.542969 9.75V3.25Z" fill="#616161"/>
<path fill-rule="evenodd" clip-rule="evenodd" d="M0.640931 2.94007C0.812485 2.695 1.15023 2.63539 1.39531 2.80695L6.50135 6.38118L11.6074 2.80695C11.8525 2.63539 12.1902 2.695 12.3618 2.94007C12.5333 3.18515 12.4737 3.52289 12.2286 3.69445L6.81197 7.48611C6.62547 7.61667 6.37723 7.61667 6.19072 7.48611L0.774056 3.69445C0.52898 3.52289 0.469378 3.18515 0.640931 2.94007Z" fill="#616161"/>
</svg>
