<svg width="52" height="52" viewBox="0 0 52 52" fill="none" xmlns="http://www.w3.org/2000/svg">
<path fill-rule="evenodd" clip-rule="evenodd" d="M26 52C11.6406 52 0 40.3594 0 26C0 11.6406 11.6406 0 26 0C40.3594 0 52 11.6406 52 26C52 40.3594 40.3594 52 26 52ZM27.1243 19.512C24.7956 20.4805 20.1417 22.4852 13.1624 25.526C12.029 25.9767 11.4353 26.4176 11.3813 26.8487C11.29 27.5773 12.2024 27.8642 13.4448 28.2549C13.6138 28.308 13.7889 28.3631 13.9685 28.4214C15.1909 28.8188 16.8352 29.2836 17.69 29.3021C18.4654 29.3189 19.3308 28.9992 20.2863 28.3431C26.8073 23.9412 30.1735 21.7163 30.3848 21.6684C30.5339 21.6345 30.7405 21.592 30.8805 21.7164C31.0205 21.8408 31.0067 22.0765 30.9919 22.1397C30.9015 22.525 27.32 25.8547 25.4665 27.5778C24.8887 28.115 24.4789 28.4961 24.3951 28.5831C24.2074 28.778 24.0161 28.9624 23.8323 29.1397C22.6966 30.2344 21.845 31.0554 23.8794 32.396C24.8571 33.0403 25.6394 33.573 26.4199 34.1045C27.2722 34.685 28.1223 35.2639 29.2223 35.9849C29.5025 36.1686 29.7701 36.3594 30.0308 36.5453C31.0228 37.2524 31.9139 37.8877 33.0149 37.7864C33.6546 37.7276 34.3154 37.126 34.651 35.3319C35.4442 31.0919 37.0031 21.9052 37.3634 18.1195C37.395 17.7878 37.3553 17.3634 37.3234 17.177C37.2915 16.9907 37.2249 16.7252 36.9827 16.5287C36.6958 16.2959 36.253 16.2468 36.055 16.2502C35.1545 16.2662 33.7729 16.7466 27.1243 19.512Z" fill="#10273D"/>
</svg>
