<?xml version="1.0" encoding="UTF-8"?>
<svg xmlns="http://www.w3.org/2000/svg" xmlns:xlink="http://www.w3.org/1999/xlink" width="120" height="120" viewBox="0 0 120 120" version="1.1">
<g id="surface1">
<path style=" stroke:none;fill-rule:evenodd;fill:rgb(99.607843%,99.607843%,99.607843%);fill-opacity:1;" d="M -0.0585938 -0.0585938 C 39.941406 -0.0585938 79.941406 -0.0585938 119.941406 -0.0585938 C 119.941406 39.941406 119.941406 79.941406 119.941406 119.941406 C 79.941406 119.941406 39.941406 119.941406 -0.0585938 119.941406 C -0.0585938 79.941406 -0.0585938 39.941406 -0.0585938 -0.0585938 Z M -0.0585938 -0.0585938 "/>
<path style=" stroke:none;fill-rule:evenodd;fill:rgb(16.862745%,16.470588%,16.078431%);fill-opacity:1;" d="M 17.050781 10.253906 C 45.644531 10.234375 74.238281 10.253906 102.832031 10.3125 C 105.15625 12.636719 107.480469 14.960938 109.804688 17.285156 C 109.863281 24.316406 109.882812 31.347656 109.863281 38.378906 C 107.128906 38.378906 104.394531 38.378906 101.660156 38.378906 C 101.699219 32.519531 101.660156 26.660156 101.542969 20.800781 C 100.664062 19.980469 99.804688 19.140625 98.964844 18.28125 C 72.949219 18.203125 46.933594 18.203125 20.917969 18.28125 C 20.039062 19.160156 19.160156 20.039062 18.28125 20.917969 C 18.222656 26.738281 18.203125 32.558594 18.222656 38.378906 C 15.488281 38.378906 12.753906 38.378906 10.019531 38.378906 C 10 31.347656 10.019531 24.316406 10.078125 17.285156 C 12.425781 14.957031 14.75 12.613281 17.050781 10.253906 Z M 17.050781 10.253906 "/>
<path style=" stroke:none;fill-rule:evenodd;fill:rgb(16.862745%,16.470588%,16.078431%);fill-opacity:1;" d="M 46.113281 32.519531 C 53.691406 32.5 61.269531 32.519531 68.847656 32.578125 C 71.25 34.980469 73.652344 37.382812 76.054688 39.785156 C 76.132812 45.449219 76.132812 51.113281 76.054688 56.777344 C 75.039062 57.890625 74.003906 58.984375 72.949219 60.058594 C 73.964844 61.132812 75 62.1875 76.054688 63.222656 C 76.132812 68.847656 76.132812 74.472656 76.054688 80.097656 C 73.652344 82.5 71.25 84.902344 68.847656 87.304688 C 61.308594 87.382812 53.769531 87.382812 46.230469 87.304688 C 45.464844 86.578125 44.664062 85.894531 43.828125 85.253906 C 43.75 68.417969 43.75 51.582031 43.828125 34.746094 C 44.648438 34.0625 45.410156 33.320312 46.113281 32.519531 Z M 46.113281 32.519531 "/>
<path style=" stroke:none;fill-rule:evenodd;fill:rgb(99.607843%,99.607843%,99.607843%);fill-opacity:1;" d="M 54.667969 40.722656 C 58.183594 40.703125 61.699219 40.722656 65.214844 40.78125 C 65.976562 41.5625 66.757812 42.324219 67.558594 43.066406 C 67.695312 46.542969 67.714844 50.019531 67.617188 53.496094 C 66.914062 54.179688 66.230469 54.882812 65.566406 55.605469 C 61.933594 55.742188 58.300781 55.761719 54.667969 55.664062 C 53.867188 54.863281 53.066406 54.0625 52.265625 53.261719 C 52.1875 49.902344 52.1875 46.542969 52.265625 43.183594 C 53.089844 42.378906 53.890625 41.558594 54.667969 40.722656 Z M 54.667969 40.722656 "/>
<path style=" stroke:none;fill-rule:evenodd;fill:rgb(99.607843%,99.607843%,99.607843%);fill-opacity:1;" d="M 54.902344 63.925781 C 58.300781 63.90625 61.699219 63.925781 65.097656 63.984375 C 65.9375 64.746094 66.777344 65.507812 67.617188 66.269531 C 67.695312 69.746094 67.695312 73.222656 67.617188 76.699219 C 66.835938 77.460938 66.074219 78.242188 65.332031 79.042969 C 61.777344 79.179688 58.222656 79.199219 54.667969 79.101562 C 53.867188 78.300781 53.066406 77.5 52.265625 76.699219 C 52.1875 73.339844 52.1875 69.980469 52.265625 66.621094 C 53.167969 65.738281 54.046875 64.839844 54.902344 63.925781 Z M 54.902344 63.925781 "/>
<path style=" stroke:none;fill-rule:evenodd;fill:rgb(16.862745%,16.470588%,16.078431%);fill-opacity:1;" d="M 10.019531 81.503906 C 12.753906 81.503906 15.488281 81.503906 18.222656 81.503906 C 18.203125 87.324219 18.222656 93.144531 18.28125 98.964844 C 19.140625 99.804688 19.980469 100.664062 20.800781 101.542969 C 46.894531 101.699219 72.988281 101.699219 99.082031 101.542969 C 99.902344 100.664062 100.742188 99.804688 101.601562 98.964844 C 101.660156 93.144531 101.679688 87.324219 101.660156 81.503906 C 104.394531 81.503906 107.128906 81.503906 109.863281 81.503906 C 109.882812 88.535156 109.863281 95.566406 109.804688 102.597656 C 107.480469 104.921875 105.15625 107.246094 102.832031 109.570312 C 74.238281 109.648438 45.644531 109.648438 17.050781 109.570312 C 14.726562 107.246094 12.402344 104.921875 10.078125 102.597656 C 10.019531 95.566406 10 88.535156 10.019531 81.503906 Z M 10.019531 81.503906 "/>
</g>
</svg>
