<svg width="694" height="423" viewBox="0 0 694 423" fill="none" xmlns="http://www.w3.org/2000/svg">
<g clip-path="url(#clip0_751_987)">
<path fill-rule="evenodd" clip-rule="evenodd" d="M946.378 -87H-252V509.519H946.378V-87ZM323.779 17.9136L510.263 125.578C574.882 162.887 597.227 246.281 559.921 310.901C548.456 330.761 532.63 346.619 514.342 357.991H508.047C478.603 357.991 453.183 339.895 442.356 314.276C466.988 314.232 491.008 301.456 504.146 278.701C523.743 244.758 512.006 200.953 478.063 181.356L295.67 76.0503C277.544 54.9785 253.093 39.4882 225.337 32.6042L225.114 32.5486C224.359 32.3631 223.601 32.1823 222.84 32.0085C222.511 31.932 222.184 31.8601 221.853 31.7883C221.348 31.677 220.84 31.5681 220.332 31.4615C219.89 31.3688 219.449 31.2807 219.007 31.1926C218.594 31.1115 218.181 31.0327 217.767 30.9515C217.215 30.8496 216.663 30.7476 216.109 30.6525C215.773 30.5946 215.437 30.5366 215.099 30.4787C214.473 30.3744 213.847 30.2747 213.219 30.1797C212.945 30.138 212.67 30.0963 212.398 30.0568C211.715 29.9572 211.028 29.8621 210.342 29.7718L209.679 29.6883C208.935 29.5956 208.191 29.5075 207.443 29.4264L206.944 29.3731C206.126 29.2873 205.303 29.2085 204.483 29.139L204.207 29.1158C203.326 29.0416 202.443 28.9767 201.56 28.9188L201.423 28.9095C200.508 28.8516 199.59 28.8029 198.67 28.7658L198.586 28.7612C197.65 28.7218 196.713 28.6939 195.772 28.6731H195.763H195.751H195.728C194.773 28.6545 193.816 28.643 192.859 28.643H172.341C214.672 -4.32173 274.654 -10.4502 323.786 17.9182V17.9159L323.779 17.9136ZM403.578 373.038C393.655 370.085 383.93 365.95 374.596 360.561L188.112 252.896C131.723 220.34 107.529 152.69 127.073 93.0449H192.852C193.41 93.0449 193.967 93.0518 194.523 93.0634H194.535H194.548H194.569C195.112 93.0773 195.654 93.0958 196.194 93.1213L196.278 93.126C196.797 93.1515 197.316 93.1793 197.833 93.2187L198.002 93.2303C198.162 93.2419 198.324 93.2581 198.482 93.2697C196.966 95.3372 195.543 97.5044 194.233 99.7736C174.636 133.719 186.373 177.524 220.316 197.122L372.394 284.922C372.384 285.525 372.382 286.128 372.382 286.73C372.382 319.442 384.115 349.545 403.581 373.041V373.043L403.578 373.038Z" fill="#173552"/>
<path d="M248.693 287.873C231.64 295.64 212.726 299.972 192.851 299.972H-0.134766" stroke="white" stroke-miterlimit="22.9256"/>
<path d="M-0.126219 28.6318L-0.130859 28.6411H172.337H192.857C194.011 28.6411 195.166 28.6573 196.313 28.6851L196.378 28.6875C197.5 28.7153 198.619 28.7593 199.734 28.8149L199.878 28.8219C200.974 28.8798 202.068 28.9494 203.158 29.0305L203.341 29.0444L203.382 29.0467C204.407 29.1279 205.429 29.2183 206.447 29.3226L206.486 29.3249H206.488L206.894 29.3666C207.863 29.4686 208.825 29.5798 209.789 29.7004L210.345 29.7699C211.247 29.8881 212.146 30.0156 213.043 30.15L213.057 30.1524H213.071L213.085 30.1547L213.099 30.157L213.843 30.2706L213.873 30.2775C214.701 30.4073 215.526 30.5441 216.346 30.6901H216.349L216.374 30.6947L217.229 30.8477L217.255 30.8524H217.262C218.006 30.9891 218.75 31.1328 219.492 31.2835L219.512 31.2858L219.533 31.2904L219.554 31.2927L219.575 31.2974L220.342 31.455L220.676 31.5245L220.699 31.5292L220.722 31.5338C221.367 31.6682 222.006 31.812 222.648 31.9557L222.662 31.9603L222.679 31.9626L222.695 31.9672L222.85 32.002C223.291 32.104 223.729 32.2037 224.167 32.308L224.201 32.3172L224.236 32.3242C224.709 32.4378 225.184 32.5537 225.657 32.6742C226.334 32.8434 227.008 33.0172 227.683 33.198C228.035 33.2931 228.388 33.3881 228.74 33.4854C229.546 33.708 230.351 33.9374 231.15 34.1762C231.445 34.2642 231.741 34.35 232.034 34.4381C232.743 34.6536 233.445 34.8739 234.147 35.101C234.419 35.1891 234.687 35.2772 234.956 35.3652C235.826 35.6503 236.692 35.9447 237.555 36.2483C237.812 36.3387 238.067 36.4291 238.322 36.5195C239.036 36.7745 239.743 37.0364 240.452 37.303L241.034 37.5232C241.986 37.8894 242.934 38.2626 243.878 38.6497L244.446 38.8814C245.171 39.1828 245.897 39.4887 246.618 39.804L247.079 40.0056C248.045 40.4298 249.005 40.8655 249.96 41.3129L250.451 41.5424C251.172 41.8831 251.893 42.2308 252.607 42.5831L252.959 42.7592C253.944 43.2483 254.922 43.7513 255.894 44.2658L256.304 44.4837C257.02 44.8662 257.732 45.2533 258.439 45.6473L258.668 45.7771C259.681 46.345 260.687 46.9221 261.686 47.5132L261.978 47.687C262.683 48.1065 263.383 48.533 264.078 48.9642L264.324 49.1171C265.307 49.7291 266.278 50.3549 267.242 50.99L267.508 51.1661C269.256 52.3251 270.971 53.5234 272.663 54.7588L272.837 54.8863C273.516 55.3846 274.193 55.8899 274.863 56.3999L274.907 56.4323C275.904 57.1949 276.891 57.9691 277.867 58.7571L277.985 58.8522C278.646 59.3876 279.306 59.93 279.958 60.477L279.965 60.4816C280.936 61.2998 281.895 62.1296 282.843 62.9733L282.952 63.0684C287.477 67.1038 291.732 71.4335 295.684 76.0299L295.696 76.0368C316.14 99.8042 328.538 130.667 328.538 164.285C328.538 194.174 318.736 221.879 302.195 244.365" stroke="white" stroke-miterlimit="22.9256"/>
<path d="M174.064 243.569H-0.134766" stroke="white" stroke-miterlimit="22.9256"/>
<path d="M245.824 211.847C257.184 199.212 264.119 182.531 264.119 164.305C264.119 126.89 234.898 95.9723 198.15 93.2395H198.143H198.136H198.132H198.125L198.004 93.2302L197.835 93.2187C197.406 93.1885 196.98 93.1607 196.549 93.1398L196.525 93.1375H196.514H196.5H196.495L196.28 93.1283L196.196 93.1236C195.707 93.1028 195.216 93.0819 194.724 93.0703H194.699H194.692H194.673H194.648H194.571H194.551H194.537H194.525C193.978 93.0587 193.431 93.0518 192.882 93.0518H192.859H127.077H-0.126953" stroke="white" stroke-miterlimit="22.9256"/>
<path d="M694.516 422.393H508.046C451.205 422.393 401.928 386.999 381.764 336.187C356.305 272.026 383.992 196.292 449.087 164.623" stroke="white" stroke-miterlimit="22.9256"/>
<path d="M542.092 151.062H694.512" stroke="white" stroke-miterlimit="22.9256"/>
<path d="M508.042 215.461L508.037 215.466C468.845 215.468 436.779 247.536 436.779 286.728C436.779 319.378 459.128 347.656 490.454 355.778C499.371 358.088 505.193 357.991 514.342 357.991H694.517" stroke="white" stroke-miterlimit="22.9256"/>
<path d="M694.517 215.465H575.084" stroke="white" stroke-miterlimit="22.9256"/>
<path fill-rule="evenodd" clip-rule="evenodd" d="M264.108 296.772L246.814 246.112L306.868 247.093L398.357 299.915L374.596 360.562L264.108 296.772Z" fill="url(#paint0_linear_751_987)"/>
<path fill-rule="evenodd" clip-rule="evenodd" d="M439.899 84.9582L450.834 133.735L397.136 134.635L294.381 74.5626L316.607 14.0547L439.899 84.9582Z" fill="url(#paint1_linear_751_987)"/>
</g>
<defs>
<linearGradient id="paint0_linear_751_987" x1="246.998" y1="246.001" x2="373.998" y2="326.999" gradientUnits="userSpaceOnUse">
<stop stop-color="#FEFEFE"/>
<stop offset="0.0196078" stop-color="#FEFEFE"/>
<stop offset="1" stop-color="#FEFEFE" stop-opacity="0"/>
</linearGradient>
<linearGradient id="paint1_linear_751_987" x1="450.999" y1="131" x2="359.001" y2="73.9993" gradientUnits="userSpaceOnUse">
<stop stop-color="#FEFEFE"/>
<stop offset="1" stop-color="#FEFEFE" stop-opacity="0"/>
</linearGradient>
<clipPath id="clip0_751_987">
<rect width="694" height="423" fill="white"/>
</clipPath>
</defs>
</svg>
