<?xml version="1.0" encoding="UTF-8"?>
<svg version="1.1" viewBox="0 0 2048 1151" width="1177" height="662" xmlns="http://www.w3.org/2000/svg">
<path transform="translate(0)" d="m0 0h2048v1151h-2048z" fill="#FDFDFD"/>
<path transform="translate(478,281)" d="m0 0h7l8 3 7 6 3 5 1 6v19l26-15 13-7h14l8 5 5 6 1 3 1 17v396l-4 10-8 7-5 2h-10l-22-11v48l-4 8-7 6-10 2-10-2-20-11-24-14-56-32-23-13-26-15-28-16-23-13-26-15-24-14-18-10-24-14-25-14-24-14-10-6-5-5-4-7v-11l5-10 11-8 9-5h2v-2l-6-2-17-10-15-9-7-8-2-5v-8l4-10 8-7 26-15 15-9 70-41 19-11 22-13 58-34 26-15 25-15 24-14 26-15 29-17z" fill="#2F58F1"/>
<path transform="translate(478,281)" d="m0 0h7l8 3 7 6 3 5 1 6v19l26-15 13-7h14l8 5 5 6 1 3 1 17v396l-4 10-8 7-5 2h-10l-22-11v48l-4 8-7 6-10 2-10-2-20-11-24-14-56-32-23-13-26-15-28-16-23-13-26-15-24-14-18-10-24-14-25-14-24-14-10-6-5-5-4-7v-11l5-10 11-8 9-5h2v-2l-6-2-17-10-15-9-7-8-2-5v-8l4-10 8-7 26-15 15-9 70-41 19-11 22-13 58-34 26-15 25-15 24-14 26-15 29-17zm24 40-19 11-22 13-39 23-21 12-15 9-21 12-32 19-53 31-26 15-21 13-24 14-28 16-22 13 1 3 17 10-5 4-12 7v2l28 16 27 15 20 12 18 10 19 11 25 14 17 10 16 9 24 14 26 15 27 15 52 30 23 13 20 12h2l1-21 17 9h1v-398l-18 9-1-22z" fill="#6484F1"/>
<path transform="translate(1179,397)" d="m0 0h71l17 2 15 4 17 8 11 8 10 9 10 11 9 15 7 17 4 18 1 10v22l-3 20-6 18-8 15-10 13-12 12-13 9-14 7-16 5-13 2-15 1h-62z" fill="#020202"/>
<path transform="translate(952,391)" d="m0 0h29l10 13 14 19 14 18 8 11 16 21 14 19 16 21 14 19 16 21 4 6h1v-54l1-108h38v230h-29l-14-18-14-19-14-18-14-19-13-17-16-21-14-19-16-21-12-16-1 163-1 1h-37z" fill="#020202"/>
<path transform="translate(1759,397)" d="m0 0h46l14 28 10 19 13 25v2l3-3 13-28 18-37 3-6h46l-6 11-9 16-26 44-15 26-5 8 2 5 14 25 16 27 14 25 13 22 9 15-1 2h-44l-12-21-14-25-13-23-9-16-3 4-18 34-12 22-13 24-2 1h-43l2-5 17-29 17-28 13-23 21-35-2-4-15-27-12-21-12-22-10-17-8-14z" fill="#020202"/>
<path transform="translate(806,397)" d="m0 0h116v32h-78v59h76v32l-1 1h-74l-1 69h78v33h-116l-1-1v-214z" fill="#020202"/>
<path transform="translate(1353,397)" d="m0 0h46l12 23 23 45 8 15 6-10 28-50 13-23h45l-2 6-13 22-17 29-16 27-14 24-8 13-1 11-1 94h-37l-1-1-1-104-14-24-45-78-10-17z" fill="#020202"/>
<path transform="translate(1549,397)" d="m0 0h111v32l-73 1-1 58h70v32l-1 1h-69v102h-38v-225z" fill="#020202"/>
<path transform="translate(1218,431)" d="m0 0 27 1 17 3 13 5 10 6 10 9 7 10 6 15 3 17v25l-2 13-4 13-7 13-8 9-10 7-13 6-18 4-12 1h-20v-156z" fill="#FDFDFD"/>
<path transform="translate(685,397)" d="m0 0h38v193h68v33h-106z" fill="#020202"/>
<path transform="translate(2039)" d="m0 0h9v1151h-9z" fill="#020202"/>
<path transform="translate(1690,397)" d="m0 0h38v226h-38z" fill="#020202"/>
<path transform="translate(0)" d="m0 0h5v1151h-5z" fill="#020202"/>
<path transform="translate(1349,718)" d="m0 0h11l4 1 5-1v40l-2 7-6 5-5 2h-10l-5-2 1-4 11 1 7-3 2-5 1-7-11 2-7-2-6-7-1-3v-12l3-6 6-5z" fill="#020202"/>
<path transform="translate(1017,704)" d="m0 0h5l1 1v48h-5v-2l-9 3-10-2-6-7-1-2v-14l4-7 6-4 9-1 6 1z" fill="#020202"/>
<path transform="translate(1417,718)" d="m0 0h11l5 3 5 6 1 3v11l-4 8-6 4h-13l-6-4-3-4-1-3v-13l5-8z" fill="#020202"/>
<path transform="translate(1101,717)" d="m0 0 8 2 4 2 5-3h11l5 5 1 3v27h-6l-1-26-3-4h-6l-4 2-1 28h-6l-1-26-3-4-11 1v29h-6v-35l8 1z" fill="#020202"/>
<path transform="translate(1444,718)" d="m0 0h6l3 8 6 18 4-10 5-15 1-1h5l4 9 5 17 2-3 8-23h6l-11 33-1 2h-7l-8-24-1-1-8 24-1 1h-6l-4-10-8-23z" fill="#020202"/>
<path transform="translate(1151,718)" d="m0 0h14l6 5 1 3v27h-5v-3l-9 4h-6l-6-4-1-2v-8l5-5 5-2 10-1v-5l-1-3h-16l-1-4z" fill="#020202"/>
<path transform="translate(1558,718)" d="m0 0h14l6 5 1 2v28l-5-1v-2l-5 3-9 1-6-3-2-3v-8l5-5 5-2 11-1-2-7-2-1-14-1v-4z" fill="#020202"/>
<path transform="translate(1659,718)" d="m0 0h11l6 4 3 7v8h-24l3 8 6 3h13v4l-7 2-11-1-7-5-3-8v-8l3-8z" fill="#020202"/>
<path transform="translate(925,718)" d="m0 0h11l5 3 3 5 1 11-24 1 3 7 6 3h13l-1 4-6 2-11-1-6-4-4-8v-10l3-7 5-5z" fill="#020202"/>
<path transform="translate(1244,718)" d="m0 0h10l6 4 3 6v9h-24l3 8 7 3h12v4l-6 2-12-1-6-4-3-6-1-10 3-9 5-5z" fill="#020202"/>
<path transform="translate(1420,722)" d="m0 0 8 1 4 5 1 2v11l-3 5-4 3h-7l-6-5-2-8 2-9 4-4z" fill="#FAFBFD"/>
<path transform="translate(1352,722)" d="m0 0h7l4 2v23l-4 2h-7l-5-3-3-5v-12l5-6z" fill="#FAFBFD"/>
<path transform="translate(1006,722)" d="m0 0 10 1 1 1v22l-5 3-9-1-5-6-1-7 2-8 4-4z" fill="#F4F6FD"/>
<path transform="translate(955,718)" d="m0 0 5 1h3l3-1h12l5 6 1 3v26h-6l-1-26-2-3-7-1-7 1-1 29h-5z" fill="#020202"/>
<path transform="translate(1536,703)" d="m0 0h12l2 3-3 2h-7l-3 2-1 8h11v5h-11v17l-1 13h-5v-30l-5-1v-4h4l1-9 4-5z" fill="#020202"/>
<path transform="translate(1601,717)" d="m0 0 11 2-1 5-10-1-5 2 1 5 14 7 3 4v6l-4 5-6 2-12-1-4-2 1-4 14 1 5-3-2-4-14-7-3-4 1-8 6-4z" fill="#020202"/>
<path transform="translate(1060,718)" d="m0 0h13l4 2-1 3h-12l-4 2 1 5 14 7 3 4v6l-4 5-6 2-12-1-4-2 1-4 14 1 5-1-1-5-15-8-3-4 1-7 4-4z" fill="#020202"/>
<path transform="translate(1211,709)" d="m0 0h6v9h11v5h-11l1 25h10l1 4-4 2h-7l-5-3-2-4v-24h-6v-5h6z" fill="#020202"/>
<path transform="translate(1625,709)" d="m0 0h6v9h11v5h-11l1 24 9 1 2 1-1 4-9 1-6-3-2-5v-23h-6v-5h6z" fill="#020202"/>
<path transform="translate(898,704)" d="m0 0h5l1 43 7 1v5l-7 1-5-2-2-6v-41z" fill="#020202"/>
<path transform="translate(1379,718)" d="m0 0 5 1 2 1 3-2h11l-2 5-12 2-1 28h-6z" fill="#020202"/>
<path transform="translate(1273,718)" d="m0 0 8 1 3-1h9l1 2-2 3-12 2-1 28h-6z" fill="#020202"/>
<path transform="translate(1687,718)" d="m0 0 9 1 2-1h9l1 2-2 3-12 2-1 28h-6z" fill="#020202"/>
<path transform="translate(1181,718)" d="m0 0 8 1 2-1h10l-1 5-10 1-2 1-1 28h-6z" fill="#020202"/>
<path transform="translate(1157,737)" d="m0 0h9v9l-6 3h-7l-3-3v-5l3-3z" fill="#F9FAFD"/>
<path transform="translate(1662,722)" d="m0 0h6l4 4 2 6-1 1h-18l1-6z" fill="#E8ECFC"/>
<path transform="translate(928,722)" d="m0 0h6l4 4 1 7h-18l-1-2 4-7z" fill="#E5EAFB"/>
<path transform="translate(1246,722)" d="m0 0h6l4 4 2 6-1 1h-18l1-5 4-5z" fill="#EBEFFC"/>
<path transform="translate(1564,737)" d="m0 0h9v9l-6 3h-7l-3-4 1-5z" fill="#FCFCFD"/>
<path transform="translate(1301,747)" d="m0 0 5 1 1 1-1 8-5 5h-3l2-5-1-8z" fill="#020202"/>
</svg>
