<svg width="87" height="39" viewBox="0 0 87 39" fill="none" xmlns="http://www.w3.org/2000/svg">
<path d="M68.417 25.4348H71.5595L72.3397 24.6611V14.3389L71.5595 13.5652H68.417L67.6368 14.3389V24.6611L68.417 25.4348ZM24.8614 0H63.821H68.5239H83.7443L86.0103 2.24674V8.69022H83.4771V3.28533L82.6969 2.51168H68.5239H63.821H24.8614V0ZM65.1036 36.4883H67.2734H82.6969L83.4771 35.7147V30.3098H86.0103V36.7533L83.7443 39H67.2734H65.1036V36.4883ZM61.2344 36.4883H3.32412L2.54386 35.7147V30.3098H0.0106885V36.7533L2.27665 39H61.2344V36.4883ZM31.67 25.4348H32.1296V23.9511V21.5348V17.5076V16.416V14.3495L31.3494 13.5758H28.1642L27.4053 14.3495V16.416V17.5076V21.5348V23.9511V25.4348H31.499H31.6593H31.67ZM34.6842 25.4348H36.0844L36.8112 26.1554V27.2364L36.0844 27.9359H33.9467H32.8564H31.6593H31.499H26.6785H25.5562H23.4506L22.7237 27.2364V26.1554L23.4506 25.4348H24.8507V13.3003L27.1167 11.0535H32.3968L34.6842 13.3003V25.4348ZM20.9815 2.51168H3.31343L2.53317 3.28533V8.69022H0V2.24674L2.26596 0H20.9815V2.51168ZM14.4829 25.4348H17.6681L18.427 24.6611V21.5242L17.6681 20.7505H14.4829L13.7026 21.5242V24.6611L14.4829 25.4348ZM14.4829 18.2495H17.6681L18.427 17.497V14.3389L17.6681 13.5864H14.4829L13.7026 14.3389V17.497L14.4829 18.2495ZM11.8749 27.9465L11.1481 27.247V11.7636L11.8749 11.0641H18.7156L20.9815 13.3109V18.525L19.9875 19.5106L20.9815 20.4962V25.7103L18.7156 27.9571H11.8749V27.9465ZM39.5154 27.9465L38.8099 27.247V11.7636L39.5154 11.0641H47.9058L48.6326 11.7636V12.8764L47.9058 13.5758H42.1127L41.3538 14.3495V17.5076L42.1127 18.2601H45.8643L46.5911 18.9595V20.0405L45.8643 20.7611H42.1127L41.3538 21.5348V24.6717L42.1127 25.4454H47.9058L48.6326 26.166V27.247L47.9058 27.9465H39.5154ZM55.8153 11.0641L51.4651 15.4092V27.2258L52.1705 27.9465H53.2608L53.9876 27.2258V16.416L56.3284 14.0951L58.6691 16.416V27.2258L59.396 27.9465H60.4862L61.1916 27.2258V15.4092L56.8414 11.0641H55.8153ZM67.3482 27.9465L65.0822 25.6997V13.3003L67.3482 11.0535H72.5749L74.8408 13.3003V25.6997L72.5749 27.9465H67.3482Z" fill="#2B2A29"/>
</svg>
