<svg width="13" height="13" viewBox="0 0 13 13" fill="none" xmlns="http://www.w3.org/2000/svg">
<g clip-path="url(#clip0_1010_4649)">
<path d="M10.773 12.4198C10.7243 12.4198 10.6755 12.4198 10.6213 12.4143C8.87176 12.2248 7.17093 11.6181 5.70301 10.6648C4.33801 9.7981 3.15718 8.61727 2.29051 7.25227C1.33718 5.77893 0.730512 4.07268 0.546345 2.3231C0.524679 2.09018 0.551762 1.8681 0.622179 1.65143C0.692595 1.43477 0.811762 1.23977 0.963429 1.07185C1.1151 0.903932 1.29926 0.773932 1.5051 0.681849C1.71635 0.589766 1.93843 0.541016 2.16593 0.541016H3.79093C4.1701 0.541016 4.5601 0.676432 4.86343 0.936432C5.16135 1.19102 5.35635 1.54852 5.41051 1.93852C5.47551 2.4206 5.59468 2.89727 5.7626 3.34685C5.87093 3.63935 5.89801 3.95352 5.8276 4.25685C5.7626 4.56018 5.61093 4.84185 5.39426 5.05852L5.00426 5.44852C5.64343 6.44518 6.48843 7.2956 7.49051 7.93476L7.88051 7.54477C8.1026 7.32268 8.38426 7.17102 8.6876 7.11143C8.99093 7.04643 9.30509 7.0681 9.59759 7.17643C10.0472 7.34435 10.5238 7.46351 11.0005 7.52851C11.4013 7.58268 11.7588 7.7831 12.0188 8.08643C12.2734 8.38977 12.4143 8.77435 12.4034 9.16977V10.7893C12.4034 11.0168 12.3601 11.2335 12.268 11.4448C12.1759 11.6506 12.0405 11.8402 11.878 11.9918C11.7101 12.1435 11.5151 12.2627 11.2984 12.3331C11.1251 12.3927 10.9518 12.4198 10.773 12.4198ZM3.80176 1.62435H3.79635H2.16593C2.0901 1.62435 2.01968 1.6406 1.94926 1.6731C1.87885 1.70018 1.81385 1.74352 1.7651 1.79768C1.71093 1.85185 1.67301 1.91685 1.65135 1.99268C1.62968 2.0631 1.61885 2.13893 1.62426 2.21477C1.79218 3.79102 2.33926 5.32935 3.20051 6.66727C3.98593 7.90227 5.05301 8.96935 6.28801 9.75477C7.62051 10.6214 9.15885 11.1631 10.7297 11.3364C10.7947 11.3418 10.8705 11.331 10.9409 11.3093C11.0113 11.2877 11.0763 11.2443 11.1359 11.1956C11.1955 11.1468 11.2388 11.0818 11.2659 11.0114C11.2984 10.941 11.3093 10.8652 11.3093 10.7893V9.16435C11.3093 9.15893 11.3093 9.15351 11.3093 9.15351C11.3147 9.0181 11.2659 8.89351 11.1793 8.7906C11.0926 8.68768 10.9734 8.62268 10.8434 8.60643C10.2909 8.53602 9.73843 8.39518 9.2076 8.20018C9.1101 8.16227 9.00176 8.15685 8.90426 8.17852C8.80135 8.20018 8.70926 8.24893 8.63343 8.32476L7.95093 9.01268C7.7776 9.18602 7.51218 9.21852 7.30093 9.09935C5.8601 8.28143 4.66843 7.08435 3.8451 5.64893C3.73135 5.42143 3.76385 5.15602 3.93718 4.98268L4.6251 4.29477C4.69551 4.22435 4.74426 4.13227 4.76593 4.02935C4.7876 3.92643 4.78218 3.82352 4.74426 3.72602C4.54385 3.19518 4.40843 2.64268 4.3326 2.08477C4.31635 1.96018 4.25135 1.84102 4.15385 1.75435C4.05635 1.6731 3.93176 1.62435 3.80176 1.62435Z" fill="#616161"/>
</g>
<defs>
<clipPath id="clip0_1010_4649">
<rect width="13" height="13" fill="white"/>
</clipPath>
</defs>
</svg>
