<svg width="52" height="52" viewBox="0 0 52 52" fill="none" xmlns="http://www.w3.org/2000/svg">
<path fill-rule="evenodd" clip-rule="evenodd" d="M52 26C52 11.6406 40.3594 0 26 0C11.6406 0 0 11.6406 0 26C0 40.3594 11.6406 52 26 52C40.3594 52 52 40.3594 52 26ZM14.82 14.82C13 16.6573 13 19.5953 13 25.48V26.52C13 32.396 13 35.334 14.82 37.18C16.6573 39 19.5953 39 25.48 39H26.52C32.396 39 35.334 39 37.18 37.18C39 35.3427 39 32.4047 39 26.52V25.48C39 19.604 39 16.666 37.18 14.82C35.3427 13 32.4047 13 26.52 13H25.48C19.604 13 16.666 13 14.82 14.82Z" fill="#10273D"/>
<path d="M26.832 31.7287C20.904 31.7287 17.524 27.6727 17.3853 20.9127H20.3667C20.462 25.87 22.646 27.9674 24.3793 28.4007V20.9127H27.1787V25.1854C28.886 25.0034 30.6887 23.0534 31.2953 20.904H34.086C33.8585 22.0166 33.4039 23.0703 32.7508 23.9993C32.0976 24.9284 31.2599 25.7127 30.29 26.3034C31.3724 26.8421 32.3283 27.6042 33.0947 28.5393C33.861 29.4745 34.4204 30.5615 34.736 31.7287H31.6593C31.0007 29.6747 29.354 28.08 27.1787 27.8634V31.7287H26.832Z" fill="#10273D"/>
</svg>
